# xmcd CD database file
#
# Track frame offsets:
#	150
#	24282
#	45254
#	63878
#	81655
#	103160
#	123567
#	143401
#	163953
#	183130
#	205152
#
# Disc length: 2927 seconds
#
# Revision: 3
# Processed by: cddbd v1.4b42PL1 Copyright (c) Steve Scherf et al.
# Submitted via: CDex 1.40Beta4
#
DISCID=8e0b6d0b
DTITLE=Desree - I Ain't Moving
DYEAR=1900
DGENRE=Blues
TTITLE0=Herald The Day
TTITLE1=Crazy Maze
TTITLE2=You Gotta Be
TTITLE3=Little Child
TTITLE4=Strong Enough
TTITLE5=Trip On Love
TTITLE6=I Ain't Moving
TTITLE7=Living In The City
TTITLE8=In My Dreams
TTITLE9=Love Is Here
TTITLE10=I Ain't Moving (Percussion Reprise)
EXTD=ID3G:   0
EXTT0=
EXTT1=
EXTT2=
EXTT3=
EXTT4=
EXTT5=
EXTT6=
EXTT7=
EXTT8=
EXTT9=
EXTT10=
PLAYORDER=
